PathFileType	4	(x/y/z)	S05_M20_T05
DataRate	CameraRate	NumFrames	NumMarkers	Units	OrigDataRate	OrigDataStartFrame	OrigNumFrames
240	240	11	50	mm	240	1	527
Frame#	Time	Sternum			R.Acromium			L.Acromium			Top.Head			R.ASIS			L.ASIS			R.PSIS			L.PSIS			R.Great.Tro			L.Great.Tro			R.Iliac.Crest			L.Iliac.Crest			V.Sacral			R.Thigh.Upper.Post			R.Thigh.Lower.Ant			R.Thigh.Lower.Post			R.Thigh.Upper.Ant			R.Knee.Lat			R.Knee.Med			R.Shank.Upper.Post			R.Shank.Lower.Ant			R.Shank.Lower.Post			R.Shank.Upper.Ant			R.Ankle.Lat			R.Ankle.Med			R.Heel.Upper			R.Heel.Med			R.Heel.Lat			R.Toe.Lat			R.Toe.Med			R.Toe.Tip			L.Thigh.Upper.Post			L.Thigh.Lower.Ant			L.Thigh.Lower.Post			L.Thigh.Upper.Ant			L.Knee.Lat			L.Shank.Upper.Post			L.Shank.Lower.Ant			L.Shank.Lower.Post			L.Shank.Upper.Ant			L.Ankle.Lat			L.Ankle.Med			L.Heel.Upper			L.Heel.Med			L.Heel.Lat			L.Toe.Lat			L.Toe.Med			L.Toe.Tip			Cervical.Spine			Back			
		X1	Y1	Z1	X2	Y2	Z2	X3	Y3	Z3	X4	Y4	Z4	X5	Y5	Z5	X6	Y6	Z6	X7	Y7	Z7	X8	Y8	Z8	X9	Y9	Z9	X10	Y10	Z10	X11	Y11	Z11	X12	Y12	Z12	X13	Y13	Z13	X14	Y14	Z14	X15	Y15	Z15	X16	Y16	Z16	X17	Y17	Z17	X18	Y18	Z18	X19	Y19	Z19	X20	Y20	Z20	X21	Y21	Z21	X22	Y22	Z22	X23	Y23	Z23	X24	Y24	Z24	X25	Y25	Z25	X26	Y26	Z26	X27	Y27	Z27	X28	Y28	Z28	X29	Y29	Z29	X30	Y30	Z30	X31	Y31	Z31	X32	Y32	Z32	X33	Y33	Z33	X34	Y34	Z34	X35	Y35	Z35	X36	Y36	Z36	X37	Y37	Z37	X38	Y38	Z38	X39	Y39	Z39	X40	Y40	Z40	X41	Y41	Z41	X42	Y42	Z42	X43	Y43	Z43	X44	Y44	Z44	X45	Y45	Z45	X46	Y46	Z46	X47	Y47	Z47	X48	Y48	Z48	X49	Y49	Z49	X50	Y50	Z50	

1	0	-786.54	1227.9	325.27	-867.47	1497.8	479.19	-875.62	1510.4	150.75	-881.74	1784.6	302.78	-882.12	968.59	467.03	NaN	NaN	NaN	-1067.7	1003.7	353.19	NaN	NaN	NaN	-989.12	903.63	517.22	-913.02	898.34	127.19	-965.71	1065.1	492.33	-929.27	1051	158.76	-1078.6	969.63	321.6	-1005.2	671.82	500.94	-974.33	587.41	448.92	-1043.5	594.09	473.13	-938.59	665.84	477.69	-1088.5	508.85	450.16	-1078.4	497.21	315.93	-1253.9	312.14	427.14	-1219.6	229.39	424.72	-1279.4	244.32	407.55	-1190.9	300.21	443.32	-1277.5	139.7	401.46	-1247.9	165.71	314.09	-1357.3	101.96	340.49	-1350.6	68.729	312.53	-1352.9	74.014	376.65	-1191.9	36.45	432.22	-1155.3	40.414	310.45	-1092.7	46.808	356.11	-819.53	673.07	131.85	-720.13	639.66	170.4	-772.74	591.6	150.61	-758.89	720.72	154.11	-721.51	523.23	161.2	-681.82	318.15	157.68	-594.5	301.64	157.73	-646.62	255.02	175.15	-631.91	360.61	146.61	-546.3	153.53	177.68	-521.18	186.51	262.65	-560.46	74.448	235.01	-535.3	64.264	266.88	-546.58	54.199	205.48	-393.06	153.15	144.26	-380.94	184.79	260.27	-338.38	228.58	202.31	-929.26	1535.6	321.3	-1059	1261.8	323.27
2	0.0041667	-781.48	1226.7	325.04	-862.56	1496.8	478.52	-870.41	1509.1	150.06	-877	1783.4	301.65	-877.5	967.46	467.1	NaN	NaN	NaN	-1062.7	1002.8	352.66	NaN	NaN	NaN	-984.87	902.78	516.92	-907.43	897.33	127.1	-961.12	1064.1	492.12	-924.02	1049.7	158.52	-1073.6	968.65	320.98	-1001.8	671.22	501.04	-971.16	586.56	449.3	-1040.3	593.55	473.17	-935.15	664.82	478.08	-1085.7	508.48	450.29	-1075.2	496.53	316.13	-1252.1	312.86	427.32	-1218.4	229.85	424.98	-1278.2	245.15	407.71	-1189.3	300.43	443.57	-1276.8	140.4	401.7	-1247	166.24	314.35	-1356.7	103.01	340.78	-1350.2	69.884	312.7	-1352.8	75.18	376.85	-1191.9	36.388	432.34	-1155.2	40.522	310.54	-1092.6	46.679	356.15	-813.93	672.09	131.8	-714.63	638.69	170.65	-767.16	590.63	150.73	-753.32	719.75	154.19	-716.24	522.09	161.41	-678.45	316.77	157.8	-591.4	299.25	158.27	-644.11	253.22	175.45	-628.11	358.67	147.06	-544.81	150.82	178.21	-519.71	183.36	263.26	-559.87	71.849	235.33	-534.89	61.374	267.23	-545.98	51.445	205.82	-391.54	149.14	145.28	-379.52	180.46	261.31	-336.49	224.08	203.59	-924.23	1534.5	320.54	-1053.9	1260.7	322.65
3	0.0083333	-776.2	1225.6	324.8	-857.43	1495.8	477.81	-864.96	1507.7	149.34	-872.05	1782.2	300.46	-872.68	966.28	467.16	-834.03	968.96	219.65	-1057.4	1001.8	352.1	-1042.6	995.2	261.39	-980.41	901.89	516.6	-901.61	896.27	127	-956.31	1063.1	491.9	-918.53	1048.4	158.26	-1068.3	967.64	320.33	-998.19	670.6	501.14	-967.84	585.67	449.69	-1037	592.99	473.21	-931.55	663.77	478.47	-1082.8	508.1	450.41	-1071.8	495.81	316.35	-1250.2	313.63	427.51	-1217.2	230.34	425.25	-1277	246.02	407.87	-1187.6	300.68	443.82	-1276.1	141.14	401.96	-1246.1	166.79	314.62	-1356.1	104.13	341.09	-1349.9	71.109	312.88	-1352.8	76.422	377.08	-1191.8	36.326	432.46	-1155.1	40.636	310.63	-1092.6	46.544	356.19	-808.11	671.06	131.75	-708.9	637.67	170.88	-761.37	589.6	150.86	-747.51	718.71	154.23	-710.76	520.9	161.64	-674.93	315.34	157.96	-588.17	296.78	158.83	-641.48	251.36	175.79	-624.16	356.66	147.55	-543.22	148.04	178.76	-518.15	180.12	263.89	-559.25	69.246	235.65	-534.46	58.452	267.59	-545.33	48.666	206.17	-389.93	144.97	146.32	-378.01	175.95	262.39	-334.48	219.38	204.91	-918.99	1533.3	319.75	-1048.7	1259.5	322
4	0.0125	-770.73	1224.4	324.54	-852.11	1494.8	477.08	-859.29	1506.3	148.59	-866.92	1780.9	299.24	-867.66	965.06	467.21	-828.61	967.67	219.79	-1052	1000.8	351.53	-1037.2	994.31	260.9	-975.77	900.98	516.27	-895.58	895.17	126.89	-951.31	1062.1	491.66	-912.82	1047	157.98	-1062.8	966.6	319.67	-994.46	669.96	501.22	-964.38	584.76	450.1	-1033.5	592.4	473.25	-927.8	662.69	478.88	-1079.7	507.71	450.55	-1068.3	495.07	316.58	-1248.2	314.44	427.7	-1215.9	230.86	425.53	-1275.7	246.95	408.03	-1185.9	300.96	444.09	-1275.4	141.93	402.23	-1245.2	167.37	314.91	-1355.5	105.31	341.4	-1349.5	72.406	313.06	-1352.8	77.738	377.32	-1191.8	36.265	432.58	-1155	40.753	310.72	-1092.5	46.404	356.24	-802.12	669.98	131.71	-702.99	636.6	171.08	-755.41	588.53	151	-741.52	717.63	154.23	-705.1	519.67	161.88	-671.28	313.88	158.14	-584.81	294.26	159.42	-638.74	249.47	176.16	-620.07	354.59	148.06	-541.56	145.21	179.34	-516.49	176.82	264.55	-558.59	66.681	235.98	-534.01	55.536	267.97	-544.62	45.903	206.55	-388.26	140.68	147.39	-376.42	171.29	263.49	-332.37	214.51	206.26	-913.55	1532	318.92	-1043.2	1258.3	321.32
5	0.016667	-765.08	1223.1	324.26	-846.61	1493.7	476.33	-853.45	1504.8	147.81	-861.63	1779.6	297.98	-862.49	963.81	467.25	-822.96	966.33	219.93	-1046.4	999.75	350.95	-1031.6	993.4	260.4	-970.97	900.05	515.92	-889.4	894.03	126.77	-946.15	1061	491.42	-906.91	1045.7	157.7	-1057.2	965.53	318.99	-990.61	669.3	501.3	-960.79	583.82	450.5	-1030	591.81	473.28	-923.93	661.58	479.28	-1076.5	507.31	450.68	-1064.6	494.29	316.82	-1246.2	315.28	427.89	-1214.6	231.41	425.82	-1274.3	247.91	408.2	-1184	301.27	444.35	-1274.6	142.77	402.52	-1244.2	167.99	315.22	-1354.8	106.55	341.72	-1349.1	73.772	313.25	-1352.8	79.125	377.59	-1191.7	36.206	432.71	-1154.9	40.876	310.82	-1092.4	46.261	356.28	-795.99	668.85	131.67	-696.94	635.49	171.24	-749.33	587.41	151.16	-735.38	716.5	154.18	-699.29	518.42	162.11	-667.52	312.41	158.37	-581.36	291.7	160.03	-635.9	247.55	176.57	-615.86	352.5	148.59	-539.8	142.38	179.93	-514.73	173.49	265.23	-557.91	64.197	236.31	-533.54	52.669	268.36	-543.86	43.198	206.93	-386.51	136.28	148.47	-374.74	166.52	264.61	-330.14	209.48	207.63	-907.94	1530.7	318.08	-1037.6	1257	320.62
6	0.020833	-759.29	1221.9	323.96	-840.97	1492.7	475.55	-847.46	1503.3	147.01	-856.21	1778.2	296.69	-857.18	962.55	467.29	-817.12	964.96	220.06	-1040.6	998.7	350.36	-1025.7	992.46	259.89	-966.04	899.1	515.56	-883.1	892.88	126.63	-940.84	1059.9	491.16	-900.84	1044.3	157.4	-1051.4	964.46	318.31	-986.64	668.63	501.36	-957.09	582.87	450.91	-1026.3	591.2	473.31	-919.93	660.47	479.69	-1073.2	506.9	450.82	-1060.9	493.5	317.08	-1244	316.17	428.09	-1213.2	232	426.11	-1272.8	248.91	408.36	-1182.1	301.6	444.62	-1273.8	143.65	402.82	-1243.1	168.63	315.54	-1354	107.85	342.05	-1348.7	75.21	313.45	-1352.8	80.579	377.87	-1191.6	36.148	432.83	-1154.7	41.003	310.92	-1092.3	46.115	356.33	-789.78	667.69	131.64	-690.77	634.34	171.36	-743.16	586.26	151.33	-729.11	715.33	154.08	-693.36	517.15	162.35	-663.67	310.93	158.64	-577.8	289.15	160.66	-632.95	245.64	177.01	-611.56	350.4	149.14	-537.96	139.56	180.54	-512.87	170.16	265.91	-557.19	61.834	236.64	-533.04	49.89	268.74	-543.05	40.591	207.33	-384.71	131.82	149.55	-372.98	161.65	265.73	-327.81	204.34	209.01	-902.18	1529.4	317.2	-1031.8	1255.8	319.9
7	0.025	-753.37	1220.6	323.64	-835.2	1491.6	474.76	-841.33	1501.8	146.19	-850.68	1776.9	295.39	-851.74	961.27	467.3	-811.12	963.57	220.16	-1034.7	997.65	349.77	-1019.8	991.51	259.38	-960.99	898.13	515.19	-876.7	891.7	126.47	-935.42	1058.8	490.89	-894.63	1042.9	157.08	-1045.5	963.39	317.62	-982.56	667.95	501.4	-953.28	581.9	451.32	-1022.5	590.58	473.33	-915.83	659.35	480.09	-1069.9	506.49	450.96	-1057.1	492.68	317.35	-1241.8	317.1	428.28	-1211.8	232.61	426.41	-1271.3	249.96	408.52	-1180.2	301.96	444.9	-1272.9	144.57	403.14	-1242	169.3	315.88	-1353.3	109.23	342.39	-1348.2	76.721	313.66	-1352.8	82.097	378.17	-1191.6	36.093	432.95	-1154.6	41.134	311.02	-1092.2	45.968	356.38	-783.5	666.51	131.62	-684.52	633.17	171.43	-736.93	585.09	151.5	-722.76	714.14	153.91	-687.33	515.88	162.59	-659.73	309.47	158.95	-574.16	286.61	161.29	-629.91	243.75	177.48	-607.17	348.32	149.71	-536.03	136.79	181.14	-510.89	166.86	266.6	-556.43	59.634	236.97	-532.52	47.239	269.13	-542.17	38.122	207.73	-382.85	127.32	150.62	-371.13	156.73	266.83	-325.37	199.09	210.38	-896.31	1528.1	316.31	-1025.9	1254.5	319.16
8	0.029167	-747.36	1219.3	323.31	-829.33	1490.4	473.96	-835.1	1500.2	145.35	-845.06	1775.5	294.06	-846.21	959.98	467.3	-805.01	962.17	220.25	-1028.8	996.6	349.17	-1013.7	990.55	258.86	-955.83	897.17	514.81	-870.23	890.51	126.29	-929.88	1057.7	490.6	-888.32	1041.5	156.76	-1039.5	962.31	316.93	-978.39	667.27	501.43	-949.37	580.93	451.72	-1018.5	589.95	473.35	-911.63	658.23	480.48	-1066.4	506.08	451.1	-1053.2	491.85	317.64	-1239.6	318.06	428.47	-1210.3	233.26	426.71	-1269.7	251.04	408.68	-1178.1	302.35	445.17	-1272	145.54	403.48	-1240.8	170.01	316.23	-1352.4	110.67	342.74	-1347.8	78.307	313.87	-1352.8	83.674	378.47	-1191.5	36.04	433.07	-1154.5	41.271	311.12	-1092.1	45.82	356.43	-777.19	665.3	131.61	-678.21	631.97	171.44	-730.67	583.9	151.69	-716.35	712.92	153.67	-681.24	514.62	162.81	-655.72	308.03	159.31	-570.43	284.12	161.93	-626.77	241.9	177.98	-602.7	346.26	150.28	-533.99	134.11	181.75	-508.79	163.64	267.29	-555.61	57.635	237.29	-531.95	44.753	269.52	-541.24	35.829	208.13	-380.92	122.8	151.67	-369.18	151.78	267.91	-322.81	193.77	211.72	-890.34	1526.8	315.41	-1019.9	1253.2	318.41
9	0.033333	-741.26	1218	322.95	-823.36	1489.3	473.14	-828.78	1498.6	144.49	-839.36	1774.2	292.72	-840.59	958.69	467.28	-798.8	960.76	220.31	-1022.7	995.56	348.59	-1007.5	989.59	258.34	-950.57	896.2	514.42	-863.74	889.33	126.09	-924.26	1056.6	490.31	-881.93	1040.1	156.42	-1033.4	961.24	316.26	-974.12	666.59	501.45	-945.36	579.96	452.12	-1014.5	589.31	473.36	-907.33	657.13	480.86	-1062.8	505.66	451.25	-1049.3	490.99	317.96	-1237.3	319.05	428.66	-1208.7	233.93	427.02	-1268	252.16	408.83	-1176	302.77	445.45	-1271	146.55	403.83	-1239.5	170.74	316.6	-1351.5	112.2	343.1	-1347.2	79.972	314.08	-1352.7	85.307	378.79	-1191.4	35.99	433.18	-1154.3	41.413	311.22	-1092	45.672	356.48	-770.88	664.09	131.6	-671.87	630.78	171.38	-724.4	582.7	151.88	-709.91	711.7	153.36	-675.09	513.38	163.02	-651.62	306.64	159.72	-566.6	281.7	162.56	-623.51	240.11	178.51	-598.16	344.26	150.86	-531.84	131.52	182.35	-506.56	160.5	267.96	-554.73	55.869	237.59	-531.34	42.466	269.89	-540.24	33.747	208.53	-378.92	118.29	152.68	-367.13	146.82	268.95	-320.14	188.39	213.02	-884.29	1525.4	314.49	-1013.9	1251.9	317.66
10	0.0375	-735.09	1216.7	322.58	-817.31	1488.2	472.31	-822.39	1497.1	143.61	-833.6	1772.8	291.37	-834.9	957.41	467.23	-792.53	959.37	220.33	-1016.6	994.52	348	-1001.2	988.63	257.82	-945.23	895.23	514.02	-857.23	888.16	125.88	-918.55	1055.4	490	-875.49	1038.7	156.07	-1027.3	960.19	315.59	-969.77	665.9	501.45	-941.25	578.98	452.51	-1010.4	588.68	473.37	-902.94	656.03	481.22	-1059.1	505.24	451.41	-1045.3	490.12	318.29	-1234.9	320.07	428.84	-1207.1	234.65	427.34	-1266.3	253.32	408.99	-1173.8	303.22	445.74	-1270	147.61	404.2	-1238.2	171.5	316.99	-1350.6	113.81	343.48	-1346.7	81.721	314.31	-1352.6	86.992	379.11	-1191.3	35.943	433.29	-1154.1	41.563	311.32	-1091.9	45.525	356.52	-764.58	662.89	131.6	-665.51	629.59	171.26	-718.15	581.52	152.08	-703.46	710.48	152.98	-668.91	512.19	163.21	-647.46	305.31	160.16	-562.69	279.37	163.18	-620.14	238.41	179.05	-593.55	342.34	151.43	-529.58	129.07	182.94	-504.18	157.49	268.61	-553.78	54.364	237.87	-530.68	40.406	270.25	-539.19	31.905	208.92	-376.87	113.8	153.66	-364.97	141.87	269.95	-317.33	182.97	214.27	-878.17	1524.1	313.56	-1007.7	1250.6	316.9
11	0.041667	-728.86	1215.4	322.18	-811.2	1487.1	471.48	-815.95	1495.5	142.72	-827.8	1771.5	290.01	-829.14	956.15	467.16	-786.23	958.01	220.33	-1010.5	993.5	347.43	-994.95	987.69	257.31	-939.82	894.27	513.61	-850.73	887.01	125.63	-912.76	1054.4	489.67	-869.01	1037.4	155.71	-1021.1	959.16	314.95	-965.32	665.21	501.43	-937.04	578.02	452.89	-1006.2	588.03	473.38	-898.47	654.96	481.57	-1055.3	504.82	451.58	-1041.1	489.23	318.63	-1232.4	321.13	429.03	-1205.4	235.39	427.66	-1264.4	254.52	409.15	-1171.6	303.69	446.04	-1268.9	148.72	404.58	-1236.8	172.3	317.39	-1349.6	115.51	343.86	-1346.1	83.559	314.55	-1352.3	88.728	379.43	-1191.2	35.898	433.39	-1154	41.72	311.42	-1091.8	45.381	356.57	-758.32	661.7	131.61	-659.16	628.43	171.07	-711.92	580.36	152.27	-697.01	709.28	152.53	-662.7	511.06	163.38	-643.21	304.05	160.65	-558.68	277.17	163.78	-616.64	236.82	179.61	-588.87	340.51	151.99	-527.19	126.77	183.5	-501.65	154.62	269.24	-552.76	53.139	238.13	-529.95	38.594	270.6	-538.09	30.327	209.29	-374.74	109.35	154.58	-362.7	136.95	270.88	-314.41	177.53	215.45	-871.99	1522.8	312.63	-1001.5	1249.4	316.14
